# xmcd
#
# Track frame offsets:
#	150
#	15857
#	34372
#	44619
#	54866
#	68436
#	83399
#	104634
#	121159
#	135754
#	151559
#	165786
#	186989
#	204186
#	216549
#
# Disc length: 3103 seconds
#
# Revision: 0
# Processed by: cddbd v1.5.1PL2 Copyright (c) Steve Scherf et al.
# Submitted via: audiograbber 1.83.01
#
DISCID=ae0c1d0f
DTITLE=Music Maestro - mm6086
DYEAR=1900
DGENRE=
TTITLE0=Harris, Emmylou - Heartbreak Hill
TTITLE1=Mattea, Kathy - A Few Good Things Remainin'
TTITLE2=x - x
TTITLE3=Lynn, Loretta - Don't Come Home A Drinkin'
TTITLE4=Lang, KD - I'm Down To My Last Cigarette
TTITLE5=Harris, Emmylou - Two More Bottles Of Wine
TTITLE6=Oslin, KT - 80's Ladies
TTITLE7=Carter, Carlene - I Love You Because I Want To
TTITLE8=Dunn, Holly - Love Somebody Like Me
TTITLE9=Morgan, Lorrie - Out Of Your Shoes
TTITLE10=Newton, Juice - Cheap Love
TTITLE11=Mattea, Kathy - Goin' Gone
TTITLE12=Harris, Emmylou - Heaven Only Knows
TTITLE13=Cline, Patsy - Crazy Arms
TTITLE14=Morgan, Lorrie - Watch Me
EXTD=
EXTT0=
EXTT1=
EXTT2=
EXTT3=
EXTT4=
EXTT5=
EXTT6=
EXTT7=
EXTT8=
EXTT9=
EXTT10=
EXTT11=
EXTT12=
EXTT13=
EXTT14=
PLAYORDER=
